<svg xmlns="http://www.w3.org/2000/svg" viewBox="0 0 48 48">
   <g id="parts">
      <path id="fullsun" fill="#203050" d="M23.982 8a.767.767 0 00-.755.777v1.993a.768.768 0 001.535 0V8.777a.767.767 0 00-.78-.777zm-10.705 4.533a.756.756 0 00-.521 1.301l1.361 1.35a.756.756 0 101.065-1.075l-1.362-1.347a.756.756 0 00-.543-.229zm21.407.002a.756.756 0 00-.52.23l-1.35 1.36a.756.756 0 101.073 1.066l1.351-1.36a.756.756 0 00-.554-1.296zm-10.69.754c-5.908 0-10.713 4.805-10.713 10.711 0 5.906 4.805 10.71 10.713 10.71 5.908 0 10.715-4.804 10.715-10.71 0-5.906-4.807-10.71-10.715-10.71zm0 1.574A9.127 9.127 0 0133.134 24a9.127 9.127 0 01-9.14 9.137A9.127 9.127 0 0114.854 24a9.127 9.127 0 019.14-9.137zm-15.217 8.37a.768.768 0 000 1.535h1.993a.768.768 0 000-1.536zm28.453 0a.768.768 0 000 1.535h1.993a.768.768 0 000-1.536zM14.62 32.58a.756.756 0 00-.518.23l-1.35 1.36a.756.756 0 101.072 1.064l1.35-1.359a.756.756 0 00-.555-1.295zm18.708.01a.756.756 0 00-.52 1.3l1.36 1.35a.756.756 0 101.064-1.074l-1.359-1.35a.756.756 0 00-.545-.226zm-9.346 3.863a.767.767 0 00-.755.778v1.992a.768.768 0 001.535 0V37.23a.767.767 0 00-.78-.778z"/>
      <path id="cloud" fill="#203050" d="M23.846 12.018c-5.092 0-9.198 3.846-9.524 8.685-1.609.347-2.992.91-3.986 1.813-1.098.997-1.726 2.38-1.746 3.99-.021 1.666.785 3.099 2.023 4.05 1.239.952 2.897 1.463 4.69 1.464h18.043c3.751 0 6.844-3.21 6.912-7.489.067-4.203-3.766-7.037-7.54-6.687-1.466-3.488-4.938-5.822-8.87-5.826zm0 1.437c3.527.004 6.638 2.152 7.761 5.313l.206.576.601-.11c3.066-.558 6.46 1.798 6.404 5.276-.057 3.613-2.533 6.07-5.472 6.07H15.303c-1.517 0-2.873-.444-3.813-1.166s-1.476-1.682-1.46-2.89c.015-1.267.448-2.195 1.273-2.944.825-.75 2.086-1.304 3.742-1.598l.594-.103v-.604c0-4.309 3.649-7.82 8.207-7.82z"/>
      <g id="mist">
         <path fill="white" d="m 24,26 h 21.4 v 14 H 24 Z"/>
         <path fill="#203050" d="M 28.367188,27.285156 C 27.972312,27.284966 27.652154,27.605124 27.652344,28 c -1.9e-4,0.394876 0.319968,0.715033 0.714844,0.714843 h 14.90625 c 0.394875,1.9e-4 0.715033,-0.319968 0.714843,-0.714843 1.9e-4,-0.394876 -0.319967,-0.715034 -0.714843,-0.714844 z m -2.142579,2.500976 c -0.394114,-1.9e-4 -0.713956,0.318779 -0.714843,0.712891 -1.9e-4,0.394876 0.319967,0.715034 0.714843,0.714844 h 14.90625 c 0.394876,1.9e-4 0.715034,-0.319968 0.714844,-0.714844 -8.87e-4,-0.394113 -0.32073,-0.713082 -0.714844,-0.712891 z m 3.572266,2.499024 C 29.401999,32.284966 29.081841,32.605124 29.082031,33 c -1.9e-4,0.394876 0.319968,0.715034 0.714844,0.714844 h 13.476563 c 0.394876,1.9e-4 0.715033,-0.319968 0.714843,-0.714844 1.9e-4,-0.394876 -0.319967,-0.715034 -0.714843,-0.714844 z m -3.572266,2.5 c -0.394876,-1.9e-4 -0.715033,0.319968 -0.714843,0.714844 -1.9e-4,0.394876 0.319967,0.715034 0.714843,0.714844 h 13.476563 c 0.394876,1.9e-4 0.715034,-0.319968 0.714844,-0.714844 1.9e-4,-0.394876 -0.319968,-0.715034 -0.714844,-0.714844 z m 2.142579,2.5 C 27.972312,37.284966 27.652154,37.605124 27.652344,38 c -1.9e-4,0.394876 0.319968,0.715034 0.714844,0.714843 h 14.90625 c 0.394876,1.9e-4 0.715033,-0.319968 0.714843,-0.714843 1.9e-4,-0.394876 -0.319968,-0.715033 -0.714843,-0.714844 z"/>
      </g>
      <g id="thunder">
         <path fill="white" d="M21.6 32.5h5.2v8.8h-5.2z"/>
         <path fill="#203050" d="M24.012 33.016a.75.75 0 00-.686.476l-1.295 3.313a.75.75 0 00.698 1.023h1.488l-.82 2.006a.75.75 0 00.41.978.75.75 0 00.978-.41l1.242-3.04a.75.75 0 00-.693-1.034h-1.506l.895-2.29a.75.75 0 00-.426-.972.75.75 0 00-.285-.05z"/>
      </g>
      <path id="rain" fill="#203050" d="M16.363 33.05a.715.715 0 00-.646.454l-1.295 3.314a.715.715 0 00.404.926.715.715 0 00.926-.406l1.295-3.313a.715.715 0 00-.404-.925.715.715 0 00-.28-.05zm4.287 0a.715.715 0 00-.648.454l-1.295 3.314a.715.715 0 00.404.926.715.715 0 00.926-.406l1.297-3.313a.715.715 0 00-.406-.925.715.715 0 00-.278-.05zm4.286 0a.715.715 0 00-.647.454l-1.297 3.314a.715.715 0 00.406.926.715.715 0 00.926-.406l1.295-3.313a.715.715 0 00-.404-.925.715.715 0 00-.28-.05zm4.287 0a.715.715 0 00-.649.454l-1.295 3.314a.715.715 0 00.405.926.715.715 0 00.925-.406l1.297-3.313a.715.715 0 00-.406-.925.715.715 0 00-.277-.05zm4.285 0a.715.715 0 00-.649.454l-1.295 3.314a.715.715 0 00.407.926.715.715 0 00.924-.406l1.296-3.313a.715.715 0 00-.406-.925.715.715 0 00-.277-.05z"/>
      <g id="snow" fill="#203050">
         <circle cx="16" cy="33.75" r="1"/>
         <circle cx="20" cy="37.75" r="1"/>
         <circle cx="24" cy="33.75" r="1"/>
         <circle cx="28" cy="37.75" r="1"/>
         <circle cx="32" cy="33.75" r="1"/>
      </g>
      <path id="partsun" fill="#203050" d="M14.828 8.563a.714.714 0 00-.705.722v1.828c0 .953 1.43.953 1.43 0V9.285a.714.714 0 00-.725-.723zm-7.43 2.945a.714.714 0 00-.49 1.228l1.283 1.276c.677.672 1.685-.344 1.008-1.016l-1.287-1.275a.714.714 0 00-.514-.213zm7.383 1.224c-3.723 0-6.758 3.035-6.758 6.758a6.72 6.72 0 001.678 4.438l.955-1.092A5.28 5.28 0 019.45 19.49a5.32 5.32 0 015.332-5.328c1.022 0 1.97.29 2.78.785l.949-1.086a6.708 6.708 0 00-3.729-1.129zM4.725 18.504c-.954 0-.954 1.43 0 1.43H6.55c.953 0 .953-1.43 0-1.43z"/>
   </g>
   <script href="microsvg.js"/>
   <script href="weather.js"/>
</svg>
