<svg xmlns="http://www.w3.org/2000/svg" viewBox="0 0 48 48">
   <path fill="currentColor"
      d="M14.374 26l-4.435 6.952c-.134-.01-.266-.029-.4-.029A5.54 5.54 0 004 38.462 5.54 5.54 0 009.538 44a5.54 5.54 0 005.539-5.538 5.477 5.477 0 00-.865-2.943l2.711-8.134-2.812 2.812.432-4.136zm-.058.436l-.415 3.97-2.747 2.748a5.528 5.528 0 00-1.006-.188zM28.265 26l-1.35.93c1.169.915 2.151 2.117 2.64 3.528.153 1.244-.487 2.455-1.294 3.358-1.207 1.297-2.739 2.468-3.231 4.253a7.37 7.37 0 00-.004 2.282c.459 1.585 1.725 2.808 3.098 3.649l1.024-1.11c-.664-.484-1.344-.99-1.786-1.697-.381-.686-.747-1.463-.671-2.267.104-1.494 1.314-2.525 2.293-3.52 1.124-1.032 2.022-2.349 2.35-3.857.151-.962-.171-1.955-.604-2.805-.66-1.041-1.524-1.953-2.465-2.744zm5.575 0l-1.35.93c1.169.915 2.151 2.117 2.64 3.528.153 1.244-.49 2.455-1.296 3.358-1.207 1.297-2.737 2.468-3.229 4.253a7.37 7.37 0 00-.004 2.282c.459 1.585 1.725 2.808 3.098 3.649l1.024-1.11c-.664-.484-1.344-.99-1.786-1.697-.381-.686-.747-1.463-.671-2.267.104-1.494 1.314-2.525 2.293-3.52 1.124-1.032 2.022-2.349 2.35-3.857.151-.962-.171-1.955-.604-2.805-.66-1.041-1.524-1.953-2.465-2.744zm5.575 0l-1.35.93c1.169.915 2.151 2.117 2.64 3.528.153 1.244-.487 2.455-1.294 3.358-1.207 1.297-2.739 2.468-3.231 4.253a7.37 7.37 0 00-.004 2.282c.459 1.585 1.725 2.808 3.098 3.649l1.024-1.11c-.664-.484-1.344-.99-1.786-1.697-.381-.686-.747-1.463-.671-2.267.104-1.494 1.314-2.525 2.293-3.52 1.124-1.032 2.022-2.349 2.35-3.857.151-.962-.171-1.955-.604-2.805-.66-1.041-1.524-1.953-2.465-2.744z" />
   <path fill="currentColor"
      d="M11.825 4C10.703 4 9.963 5.056 9.8 6.344V6.7h1.35v-.569c0-.432.301-.781.675-.781.374 0 .675.349.675.781v9.666a2.475 2.475 0 011.8 2.378c0 2.044-2.337 3.208-3.967 1.975-1.63-1.232-1.15-3.798.817-4.355V14.8H9.8v.135a3.825 3.825 0 00-1.8 3.24 3.825 3.825 0 105.85-3.242V6.344C13.85 5.046 12.947 4 11.825 4zM9.8 7.6h1.35v.9H9.8zm0 1.8h1.35v.9H9.8zm0 1.8h1.35v.9H9.8zm0 1.8h1.35v.9H9.8zM33.369 21.9c-1.587-.45-2.474-1.68-2.506-3.478-.017-.946.192-1.428 1.428-3.296 1.017-1.535 1.619-2.678 1.986-3.77l.253-.753.19.614c.313 1.001.994 2.3 2.037 3.881 1.477 2.241 1.667 2.846 1.335 4.258-.28 1.185-1.014 2.07-2.009 2.42-.665.234-2.094.3-2.714.124zm-6.123-10.651c-.637-.29-1.047-.815-1.213-1.555-.196-.879-.084-1.273.713-2.504.797-1.231 1.596-2.8 1.605-3.151.004-.13.124.08.268.468.28.752.658 1.446 1.342 2.464.806 1.2.954 1.587.887 2.328-.083.908-.504 1.61-1.155 1.925-.646.313-1.789.324-2.447.024z" />
</svg>