<svg xmlns="http://www.w3.org/2000/svg" viewBox="0 0 48 48">
   <path fill="currentColor"
      d="M13.5 4C11.007 4 9.362 6.347 9 9.209V10h3V8.736C12 7.775 12.669 7 13.5 7s1.5.775 1.5 1.736v21.479a5.5 5.5 0 014 5.285c.001 4.542-5.192 7.128-8.816 4.39C6.56 37.15 7.63 31.448 12 30.21V28H9v.3a8.5 8.5 0 00-4 7.2 8.5 8.5 0 1017 0 8.5 8.5 0 00-4-7.205V9.209C18 6.324 15.993 4 13.5 4zM9 12h3v2H9zm0 4h3v2H9zm0 4h3v2H9zm0 4h3v2H9z" />
   <path fill="currentColor"
      d="M40.055 10.095l-6.864 10.76c-.207-.015-.411-.045-.62-.045A8.574 8.574 0 0024 29.38a8.574 8.574 0 008.571 8.572 8.574 8.574 0 008.572-8.571c0-1.685-.502-3.226-1.34-4.554L44 12.238l-4.353 4.353.67-6.4zm-.09.675l-.641 6.144-4.253 4.253a8.555 8.555 0 00-1.556-.29z" />
</svg>