<?xml version="1.0" encoding="UTF-8" standalone="no"?>
<svg xmlns="http://www.w3.org/2000/svg" viewBox="0 0 48 48">
  <path fill="currentColor"
    d="M8 10c-2.216 0-4 1.784-4 4v20c0 2.216 1.784 4 4 4h32c2.216 0 4-1.784 4-4V14c0-2.216-1.784-4-4-4zm2 4h28c1.108 0 2 .892 2 2v16c0 1.108-.892 2-2 2H10c-1.108 0-2-.892-2-2V16c0-1.108.892-2 2-2z" />
  <use href="#max7219" x="9" y="16" width="8" height="8"></use>
  <use href="#max7219" x="16" y="16" width="8" height="8"></use>
  <use href="#max7219" x="23" y="16" width="8" height="8"></use>
</svg>