<svg xmlns="http://www.w3.org/2000/svg" viewBox="0 0 48 48">
   <path fill="currentColor"
      d="M10.156 3.722h11.327q7.496 0 11.272 2.243 3.776 2.244 3.776 7.633 0 2.326-.903 4.186-.876 1.834-2.572 3.037-1.696 1.204-4.186 1.67v.273q2.627.41 4.651 1.505 2.025 1.094 3.174 3.064t1.149 5.007q0 3.693-1.724 6.238-1.696 2.544-4.815 3.858-3.119 1.286-7.387 1.286H10.156zm4.651 17.154h7.66q5.227 0 7.224-1.724 2.024-1.723 2.024-5.034 0-3.42-2.407-4.925-2.38-1.504-7.606-1.504h-6.895zm0 3.913v14.965h8.317q5.336 0 7.552-2.079 2.216-2.107 2.216-5.663 0-2.271-1.012-3.886-.985-1.614-3.229-2.462-2.216-.875-5.937-.875z" />
</svg>