<svg xmlns="http://www.w3.org/2000/svg" viewBox="0 0 48 48">
   <path fill="currentColor"
      d="M24.691 4c-2.43 0-4.586.399-6.466 1.197-1.863.78-3.326 1.916-4.391 3.407-1.047 1.472-1.57 3.248-1.57 5.324 0 1.508.213 2.846.638 4.017a9.029 9.029 0 001.944 3.088c.321.335.672.657 1.052.967h-2.976v4H24.14c1.525.595 2.781 1.166 3.771 1.713 1.366.727 2.342 1.542 2.928 2.447.585.887.879 1.998.879 3.328 0 1.384-.355 2.573-1.065 3.567-.692.976-1.712 1.73-3.06 2.261-1.349.515-3 .772-4.951.772-2.094 0-4.098-.23-6.014-.692-1.916-.479-3.54-.994-4.871-1.544v4.337c.834.39 1.8.72 2.9.987 1.1.266 2.308.47 3.621.611 1.313.142 2.705.213 4.178.213 2.786 0 5.208-.426 7.266-1.277 2.058-.852 3.653-2.085 4.789-3.7 1.153-1.632 1.73-3.601 1.73-5.908 0-2.058-.416-3.753-1.25-5.084A9.162 9.162 0 0033.27 26h1.808v-4h-9.463l-.097-.035c-2.094-.763-3.78-1.492-5.057-2.184-1.26-.71-2.182-1.517-2.768-2.422-.567-.904-.851-2.04-.851-3.406 0-1.224.3-2.279.904-3.166.603-.887 1.472-1.572 2.608-2.05 1.153-.497 2.564-.745 4.232-.745 1.668 0 3.282.196 4.844.586 1.579.39 3.069.878 4.47 1.463l1.41-3.885c-1.472-.656-3.094-1.18-4.869-1.57-1.756-.39-3.674-.586-5.75-.586z" />
</svg>