<svg xmlns="http://www.w3.org/2000/svg" viewBox="0 0 48 48">
<path  fill="currentColor" d="M20.127 4l-1.998 1.934 1.525 1.875h12.217l1.998-1.932L32.348 4H20.127zm-2.516 2.434l-1.965 1.9-1.468 13.293 1.498 1.844 1.965-1.9 1.468-13.294-1.498-1.843zm16.713 0l-1.965 1.9-1.47 13.293 1.498 1.844 1.967-1.9 1.468-13.294-1.498-1.843zM18.127 22.096l-1.998 1.933 1.523 1.875h12.22l2-1.933-1.524-1.875H18.127zm-2.514 2.433l-1.967 1.9-1.468 13.294 1.498 1.843 1.965-1.9 1.47-13.293-1.498-1.844zm16.711 0l-1.965 1.9-1.468 13.294 1.498 1.843 1.965-1.9 1.468-13.293-1.498-1.844zM16.13 40.191l-1.998 1.932L15.652 44h12.221l1.998-1.934-1.525-1.875H16.129zm20.975.18a2.046 2.046 0 00-2.047 2.047 2.046 2.046 0 002.047 2.045 2.046 2.046 0 002.044-2.045 2.046 2.046 0 00-2.044-2.047z"/>
</svg>