<svg xmlns="http://www.w3.org/2000/svg" viewBox="0 0 48 48">
   <path d="M14.4 43.1c-2.063-2.378-1.04-5.735 2.987-8.025 1.383-.668 2.408-.98 4.191-.936 1.115.045 2.363.669 2.363.669 0-8.07-.044-23.317-.044-30.808.445 0 .746-.005 1.37-.005l.012 1.12c.004.401 0 .624.044.892.446 2.809 1.07 3.923 4.191 7.356 3.968 4.414 5.127 7.044 5.127 10.566-.194 3.33-1.448 6.848-2.072 6.58.891-2.496.646-1.675.958-3.905.4-2.72-.714-6.553-2.497-8.56-1.427-1.694-4.815-3.165-5.751-3.165 0 0-.045 16.228-.045 22.38 0 1.026-.936 2.854-1.471 3.478-2.452 2.943-7.223 4.28-9.363 2.363z" />
</svg>