<svg xmlns="http://www.w3.org/2000/svg" viewBox="0 0 48 48">
   <path style="-inkscape-stroke:none"
      d="M12 4c-4.406 0-8 3.594-8 8 0 4.406 3.594 8 8 8a7.93 7.93 0 003.64-.887l3.733 6.916a5.06 5.06 0 00-1.94.606c-1.231.665-2.044 1.65-2.435 2.96s-.253 2.583.412 3.815l4.053 7.508 9.748 2.912c.497.149 1.016.2 1.559.152a3.988 3.988 0 001.564-.472l9.504-5.131a4.037 4.037 0 001.848-2.049 3.78 3.78 0 00.103-2.756L39.244 21.37a4.018 4.018 0 00-1.484-2.068c-.726-.537-1.528-.776-2.406-.719l-5.512 1.158c-.528.04-1.099.263-1.373.4l-.705.38-4.086-7.567c-.665-1.232-1.651-2.044-2.961-2.435-.3-.09-.598-.15-.895-.184C19.052 6.724 15.835 4 12 4zm0 2a5.978 5.978 0 015.816 4.535c-.307.1-.61.232-.912.395a5.412 5.412 0 00-.93.633C15.755 9.569 14.05 8 12 8c-2.197 0-4 1.803-4 4s1.803 4 4 4c.833 0 1.609-.26 2.252-.701-.004.697.15 1.384.459 2.058A6 6 0 0112 18c-3.326 0-6-2.674-6-6s2.674-6 6-6zm0 4c1.116 0 2 .884 2 2s-.884 2-2 2-2-.884-2-2 .884-2 2-2zm7.488 3.293c.126.01.253.033.377.07.497.149.889.488 1.174 1.016l5.225 9.68 2.42-1.307 7.503-1.154 4.973 13.738-10.605 5.725-9.07-2.713-3.436-6.364c-.285-.528-.354-1.042-.205-1.539.148-.497.487-.887 1.015-1.172.528-.285 1.039-.353 1.536-.205.45.135.815.429 1.091.875 1.334 2.48 2.674 4.942 4.01 7.416l2.64-1.425L17.52 16.279c-.285-.528-.354-1.042-.206-1.539.149-.497.486-.887 1.014-1.172.396-.213.782-.305 1.16-.275z"
      fill="currentColor" />
</svg>