<svg xmlns="http://www.w3.org/2000/svg" viewBox="0 0 48 48">
<path d="M23.96 4a1 1 0 00-.958.682l-.846 2.51c-1.186 3.526-3.14 7.257-6.496 12.335-2.066 3.126-3.296 5.112-4.027 6.803-.732 1.69-.925 3.102-.895 4.756.114 6.312 3.422 10.934 9.073 12.539 1.258.357 2.99.426 4.78.344 1.79-.082 3.571-.32 4.864-.776 3.665-1.293 6.332-4.56 7.324-8.783.57-2.425.71-4.377.018-6.588-.693-2.21-2.129-4.63-4.602-8.384-3.443-5.228-5.67-9.51-6.656-12.688l-.635-2.047A1 1 0 0023.961 4zm-.015 4.078c1.161 3.385 3.296 7.476 6.578 12.46 2.45 3.717 3.789 6.04 4.366 7.882.577 1.842.48 3.25-.057 5.531-.864 3.678-3.083 6.31-6.043 7.356-.924.326-2.63.588-4.289.664-1.659.076-3.337-.04-4.145-.27-4.917-1.397-7.514-4.979-7.617-10.65-.027-1.5.1-2.468.73-3.926.632-1.458 1.81-3.391 3.86-6.494 3.336-5.048 5.35-8.874 6.617-12.553zm6.9 24.63c-.82.227-1.092.916-2.553 2.297-1.247 1.178-2.593 1.719-2.955 2.246-.363.527-.455 1.46.22 2.227.675.767 1.88.695 2.784.483.905-.212 1.818-.711 2.651-1.445.833-.734 1.441-1.576 1.766-2.448.324-.871.37-2.005-.09-2.59-.46-.584-1.003-.995-1.823-.77z"
fill="currentColor"/></svg>